# Blender v2.65 (sub 0) OBJ File: 'simpleHeightMapping.blend'
# www.blender.org
o Cylinder
v 0.000000 -0.693534 -0.500000
v 0.000000 0.693534 -0.500000
v 0.097545 -0.693534 -0.490393
v 0.097545 0.693534 -0.490393
v 0.191342 -0.693534 -0.461940
v 0.191342 0.693534 -0.461940
v 0.277785 -0.693534 -0.415735
v 0.277785 0.693534 -0.415735
v 0.353553 -0.693534 -0.353553
v 0.353553 0.693534 -0.353553
v 0.415735 -0.693534 -0.277785
v 0.415735 0.693534 -0.277785
v 0.461940 -0.693534 -0.191342
v 0.461940 0.693534 -0.191342
v 0.490393 -0.693534 -0.097545
v 0.490393 0.693534 -0.097545
v 0.500000 -0.693534 -0.000000
v 0.500000 0.693534 -0.000000
v 0.490393 -0.693534 0.097545
v 0.490393 0.693534 0.097545
v 0.461940 -0.693534 0.191342
v 0.461940 0.693534 0.191342
v 0.415735 -0.693534 0.277785
v 0.415735 0.693534 0.277785
v 0.353553 -0.693534 0.353553
v 0.353553 0.693534 0.353553
v 0.277785 -0.693534 0.415735
v 0.277785 0.693534 0.415735
v 0.191342 -0.693534 0.461940
v 0.191342 0.693534 0.461940
v 0.097545 -0.693534 0.490393
v 0.097545 0.693534 0.490393
v -0.000000 -0.693534 0.500000
v -0.000000 0.693534 0.500000
v -0.097545 -0.693534 0.490393
v -0.097545 0.693534 0.490393
v -0.191342 -0.693534 0.461940
v -0.191342 0.693534 0.461940
v -0.277785 -0.693534 0.415735
v -0.277785 0.693534 0.415735
v -0.353554 -0.693534 0.353553
v -0.353554 0.693534 0.353553
v -0.415735 -0.693534 0.277785
v -0.415735 0.693534 0.277785
v -0.461940 -0.693534 0.191341
v -0.461940 0.693534 0.191341
v -0.490393 -0.693534 0.097545
v -0.490393 0.693534 0.097545
v -0.500000 -0.693534 -0.000000
v -0.500000 0.693534 -0.000000
v -0.490393 -0.693534 -0.097546
v -0.490393 0.693534 -0.097546
v -0.461940 -0.693534 -0.191342
v -0.461940 0.693534 -0.191342
v -0.415734 -0.693534 -0.277786
v -0.415734 0.693534 -0.277786
v -0.353553 -0.693534 -0.353554
v -0.353553 0.693534 -0.353554
v -0.277785 -0.693534 -0.415735
v -0.277785 0.693534 -0.415735
v -0.191341 -0.693534 -0.461940
v -0.191341 0.693534 -0.461940
v -0.097544 -0.693534 -0.490393
v -0.097544 0.693534 -0.490393
vt 0.468994 0.006847
vt 0.468994 0.994665
vt 0.438125 0.994665
vt 0.438125 0.006847
vt 0.407256 0.994665
vt 0.407256 0.006847
vt 0.376387 0.994665
vt 0.376387 0.006847
vt 0.345517 0.994665
vt 0.345517 0.006847
vt 0.314648 0.994665
vt 0.314648 0.006847
vt 0.283779 0.994665
vt 0.283779 0.006847
vt 0.252909 0.994665
vt 0.252909 0.006847
vt 0.222040 0.994665
vt 0.222040 0.006847
vt 0.191171 0.994665
vt 0.191171 0.006847
vt 0.160301 0.994665
vt 0.160301 0.006847
vt 0.129432 0.994665
vt 0.129432 0.006847
vt 0.098563 0.994665
vt 0.098563 0.006847
vt 0.067693 0.994665
vt 0.067693 0.006847
vt 0.036824 0.994665
vt 0.036824 0.006847
vt 0.005955 0.994665
vt 0.005955 0.006847
vt 0.993773 0.006847
vt 0.993773 0.994665
vt 0.962904 0.994665
vt 0.962904 0.006847
vt 0.932034 0.994665
vt 0.932034 0.006847
vt 0.901165 0.994665
vt 0.901165 0.006847
vt 0.870296 0.994665
vt 0.870296 0.006847
vt 0.839426 0.994665
vt 0.839426 0.006847
vt 0.808557 0.994665
vt 0.808557 0.006847
vt 0.777688 0.994665
vt 0.777688 0.006847
vt 0.746818 0.994665
vt 0.746818 0.006847
vt 0.715949 0.994665
vt 0.715949 0.006847
vt 0.685080 0.994665
vt 0.685080 0.006847
vt 0.654210 0.994665
vt 0.654210 0.006847
vt 0.623341 0.994665
vt 0.623341 0.006847
vt 0.592472 0.994665
vt 0.592472 0.006847
vt 0.561602 0.994665
vt 0.561602 0.006847
vt 0.530733 0.994665
vt 0.530733 0.006847
vt 0.499864 0.006847
vt 0.499864 0.994665
vn 0.000000 0.000000 -1.000000
vn 0.195074 0.000000 -0.980773
vn 0.382672 0.000000 -0.923856
vn 0.555559 0.000000 -0.831446
vn 0.707083 0.000000 -0.707083
vn 0.831446 0.000000 -0.555559
vn 0.923856 0.000000 -0.382672
vn 0.980773 0.000000 -0.195074
vn 1.000000 0.000000 0.000000
vn 0.980773 0.000000 0.195074
vn 0.923856 0.000000 0.382672
vn 0.831446 0.000000 0.555559
vn 0.707083 0.000000 0.707083
vn 0.555559 0.000000 0.831446
vn 0.382672 0.000000 0.923856
vn 0.195074 0.000000 0.980773
vn 0.000000 0.000000 0.999969
vn -0.195074 0.000000 0.980773
vn -0.382672 0.000000 0.923856
vn -0.555559 0.000000 0.831446
vn -0.707083 0.000000 0.707083
vn -0.831446 0.000000 0.555559
vn -0.923856 0.000000 0.382672
vn -0.980773 0.000000 0.195074
vn -1.000000 0.000000 0.000000
vn -0.980773 0.000000 -0.195074
vn -0.923856 0.000000 -0.382672
vn -0.831446 0.000000 -0.555559
vn -0.707083 0.000000 -0.707083
vn -0.555559 0.000000 -0.831446
vn -0.382672 0.000000 -0.923856
vn -0.195074 0.000000 -0.980773
s 1
f 1/1/1 2/2/1 4/3/2
f 1/1/1 4/3/2 3/4/2
f 3/4/2 4/3/2 6/5/3
f 3/4/2 6/5/3 5/6/3
f 5/6/3 6/5/3 8/7/4
f 5/6/3 8/7/4 7/8/4
f 7/8/4 8/7/4 10/9/5
f 7/8/4 10/9/5 9/10/5
f 9/10/5 10/9/5 12/11/6
f 9/10/5 12/11/6 11/12/6
f 11/12/6 12/11/6 14/13/7
f 11/12/6 14/13/7 13/14/7
f 13/14/7 14/13/7 16/15/8
f 13/14/7 16/15/8 15/16/8
f 15/16/8 16/15/8 18/17/9
f 15/16/8 18/17/9 17/18/9
f 17/18/9 18/17/9 20/19/10
f 17/18/9 20/19/10 19/20/10
f 19/20/10 20/19/10 22/21/11
f 19/20/10 22/21/11 21/22/11
f 21/22/11 22/21/11 24/23/12
f 21/22/11 24/23/12 23/24/12
f 23/24/12 24/23/12 26/25/13
f 23/24/12 26/25/13 25/26/13
f 25/26/13 26/25/13 28/27/14
f 25/26/13 28/27/14 27/28/14
f 27/28/14 28/27/14 30/29/15
f 27/28/14 30/29/15 29/30/15
f 29/30/15 30/29/15 32/31/16
f 29/30/15 32/31/16 31/32/16
f 31/33/16 32/34/16 34/35/17
f 31/33/16 34/35/17 33/36/17
f 33/36/17 34/35/17 36/37/18
f 33/36/17 36/37/18 35/38/18
f 35/38/18 36/37/18 38/39/19
f 35/38/18 38/39/19 37/40/19
f 37/40/19 38/39/19 40/41/20
f 37/40/19 40/41/20 39/42/20
f 39/42/20 40/41/20 42/43/21
f 39/42/20 42/43/21 41/44/21
f 41/44/21 42/43/21 44/45/22
f 41/44/21 44/45/22 43/46/22
f 43/46/22 44/45/22 46/47/23
f 43/46/22 46/47/23 45/48/23
f 45/48/23 46/47/23 48/49/24
f 45/48/23 48/49/24 47/50/24
f 47/50/24 48/49/24 50/51/25
f 47/50/24 50/51/25 49/52/25
f 49/52/25 50/51/25 52/53/26
f 49/52/25 52/53/26 51/54/26
f 51/54/26 52/53/26 54/55/27
f 51/54/26 54/55/27 53/56/27
f 53/56/27 54/55/27 56/57/28
f 53/56/27 56/57/28 55/58/28
f 55/58/28 56/57/28 58/59/29
f 55/58/28 58/59/29 57/60/29
f 57/60/29 58/59/29 60/61/30
f 57/60/29 60/61/30 59/62/30
f 59/62/30 60/61/30 62/63/31
f 59/62/30 62/63/31 61/64/31
f 2/2/1 1/1/1 63/65/32
f 2/2/1 63/65/32 64/66/32
f 61/64/31 62/63/31 64/66/32
f 61/64/31 64/66/32 63/65/32
